<?xml version="1.0" encoding="utf-8"?>
<!-- Generator: Adobe Illustrator 16.0.0, SVG Export Plug-In . SVG Version: 6.00 Build 0)  -->
<!DOCTYPE svg PUBLIC "-//W3C//DTD SVG 1.1//EN" "http://www.w3.org/Graphics/SVG/1.1/DTD/svg11.dtd">
<svg version="1.1" id="Layer_1" xmlns="http://www.w3.org/2000/svg" xmlns:xlink="http://www.w3.org/1999/xlink" x="0px" y="0px"
	 width="569.06px" height="320px" viewBox="0 0 569.06 320" enable-background="new 0 0 569.06 320" xml:space="preserve">
<g opacity="0.85">
	<path fill="#FFFFFF" d="M123.344,301.24c-1.105-0.01-2.008,0.878-2.018,1.982c-0.01,1.104,0.877,2.008,1.981,2.018
		c1.104,0.012,2.008-0.877,2.018-1.98C125.336,302.154,124.448,301.252,123.344,301.24 M113.344,301.149
		c-1.104-0.011-2.008,0.877-2.018,1.981c-0.01,1.104,0.877,2.008,1.982,2.018c1.104,0.012,2.008-0.877,2.018-1.98
		C115.336,302.063,114.449,301.16,113.344,301.149 M109.48,283.112l-2.421-8.022l-6.475-0.06c-0.552-0.005-1.004,0.439-1.009,0.991
		s0.438,1.003,0.991,1.008l5,0.048l1.955,6.018h-0.01l1.889,12.018c-0.021,2.209,1.754,4.017,3.963,4.036l10.999,0.103
		c2.209,0.02,4.017-1.754,4.037-3.963l3.11-11.973L109.48,283.112z M126.399,295.269c-0.01,1.104-0.914,1.992-2.018,1.982l-11-0.102
		c-1.104-0.011-1.991-0.914-1.981-2.018l-1.575-10.017l19.166,0.178L126.399,295.269z"/>
	<path fill="#FCFCFC" d="M130.152,230.488c0-10.744-8.741-19.485-19.486-19.485c-10.744,0-19.485,8.741-19.485,19.485
		c0,5.922,2.659,11.233,6.842,14.809c0.055,0.063,0.118,0.118,0.189,0.164c3.379,2.816,7.722,4.514,12.454,4.514
		c4.691,0,9-1.668,12.367-4.438c0.18-0.073,0.33-0.206,0.43-0.372C127.557,241.59,130.152,236.338,130.152,230.488 M92.979,230.488
		c0-9.753,7.934-17.687,17.686-17.687c9.753,0,17.687,7.934,17.687,17.687c0,4.771-1.902,9.104-4.984,12.289
		c-0.477-2.352-1.964-6.317-6.583-8.888c1.021-1.313,1.637-2.959,1.637-4.749c0-4.275-3.481-7.756-7.757-7.756
		c-4.276,0-7.755,3.48-7.755,7.756c0,1.8,0.621,3.453,1.653,4.771c-4.62,2.589-6.09,6.575-6.553,8.915
		C94.901,239.637,92.979,235.283,92.979,230.488 M104.708,229.141c0-3.285,2.672-5.957,5.957-5.957c3.286,0,5.958,2.672,5.958,5.957
		s-2.672,5.958-5.958,5.958C107.381,235.099,104.708,232.426,104.708,229.141 M99.617,244.284c0.128-1.44,0.957-6.311,6.273-9.045
		c1.318,1.034,2.974,1.657,4.776,1.657c1.813,0,3.477-0.629,4.799-1.673c5.339,2.721,6.175,7.513,6.306,9.018
		c-3.038,2.458-6.902,3.935-11.105,3.935C106.489,248.176,102.646,246.716,99.617,244.284"/>
	
		<rect x="189.047" y="171.579" fill="none" stroke="#FFFFFF" stroke-width="2" stroke-miterlimit="10" width="44.267" height="22.132"/>
	<polyline fill="none" stroke="#FFFFFF" stroke-width="2" stroke-miterlimit="10" points="197.561,169.876 197.561,163.066 
		241.827,163.066 241.827,185.198 235.018,185.198 	"/>
	<path fill="none" stroke="#FFFFFF" stroke-width="2" stroke-miterlimit="10" d="M196.708,190.307c0-2.555-1.702-3.405-4.256-3.405
		v-8.513c2.554,0,4.256-0.853,4.256-3.405h29.795c0,2.553,1.703,3.405,3.405,3.405v8.513c-1.702,0-3.405,0.851-3.405,3.405H196.708z
		"/>
	<circle fill="none" stroke="#FFFFFF" stroke-width="2" stroke-miterlimit="10" cx="211.181" cy="182.645" r="4.256"/>
	
		<rect x="342.133" y="298.289" fill="none" stroke="#FFFFFF" stroke-width="2" stroke-miterlimit="10" width="8.287" height="8.287"/>
	
		<rect x="385.227" y="298.289" fill="none" stroke="#FFFFFF" stroke-width="2" stroke-miterlimit="10" width="8.287" height="8.287"/>
	
		<rect x="363.68" y="275.085" fill="none" stroke="#FFFFFF" stroke-width="2" stroke-miterlimit="10" width="8.288" height="8.287"/>
	<circle fill="none" stroke="#FFFFFF" stroke-width="2" stroke-miterlimit="10" cx="344.619" cy="279.229" r="2.486"/>
	<circle fill="none" stroke="#FFFFFF" stroke-width="2" stroke-miterlimit="10" cx="391.027" cy="279.229" r="2.486"/>
	<path fill="none" stroke="#FFFFFF" stroke-width="2" stroke-miterlimit="10" d="M347.105,279.229h16.574
		c-17.403,0-17.403,19.061-17.403,19.061"/>
	<path fill="none" stroke="#FFFFFF" stroke-width="2" stroke-miterlimit="10" d="M388.541,279.229h-16.573
		c17.402,0,17.402,19.061,17.402,19.061"/>
	
		<rect x="236.173" y="129.177" transform="matrix(-0.7833 0.6217 -0.6217 -0.7833 514.8834 83.3472)" fill="none" stroke="#FFFFFF" stroke-width="2" stroke-miterlimit="10" width="13.481" height="4.494"/>
	
		<rect x="229.451" y="122.986" transform="matrix(-0.7833 0.6217 -0.6217 -0.7833 505.3207 77.2894)" fill="none" stroke="#FFFFFF" stroke-width="2" stroke-miterlimit="10" width="19.474" height="7.49"/>
	<polyline fill="none" stroke="#FCFCFC" stroke-width="2" stroke-miterlimit="10" points="242.139,119.606 240.277,117.259 
		238.329,106.374 215.437,96.812 219.556,121.275 229.717,125.642 231.579,127.988 	"/>
	<circle fill="none" stroke="#FFFFFF" stroke-width="2" stroke-miterlimit="10" cx="228.418" cy="113.164" r="2.995"/>
	<line fill="none" stroke="#FFFFFF" stroke-width="2" stroke-miterlimit="10" x1="215.437" y1="96.812" x2="226.613" y2="110.892"/>
	<path fill="none" stroke="#FCFCFC" stroke-width="2" stroke-miterlimit="10" d="M23.633,304.275c-5.523,0-10-4.477-10-10
		s4.477-10,10-10h2v20H23.633z"/>
	<path fill="none" stroke="#FCFCFC" stroke-width="2" stroke-miterlimit="10" d="M65.633,284.275c5.523,0,10,4.477,10,10
		s-4.477,10-10,10h-2v-20H65.633z"/>
	<path fill="none" stroke="#FCFCFC" stroke-width="2" stroke-miterlimit="10" d="M25.633,287.275v-9c0,0,0-16,19-16s19,16,19,16v6"
		/>
	<path fill="none" stroke="#FFFFFF" stroke-width="2" stroke-miterlimit="10" d="M276.522,52.827c4.564,0,8-3.436,8-8
		c0-4.565-3.437-9-8-9c0-11.414-9.586-20-21-20c-10.102,0-19.2,6.423-21,16h-2c-5.708,0-10,5.292-10,11s4.292,10,10,10"/>
	<path fill="#FFFFFF" stroke="#FFFFFF" stroke-width="2" stroke-miterlimit="10" d="M248.522,70.827c0,2.761,2.238,5,5,5
		s5-2.239,5-5c0-2.761-2.238-5-5-5h-30"/>
	<path fill="#FFFFFF" stroke="#FFFFFF" stroke-width="2" stroke-miterlimit="10" d="M261.522,54.827c0-2.761,2.238-5,5-5
		s5,2.239,5,5c0,2.761-2.238,5-5,5h-41"/>
	<polygon fill="none" stroke="#FFFFFF" stroke-width="2" stroke-linejoin="bevel" stroke-miterlimit="10" points="474.494,49.44 
		460.775,70.914 469.126,70.914 464.951,86.421 480.459,64.948 472.108,64.948 	"/>
	<rect x="496.728" y="265.54" fill="#FFFFFF" width="22.001" height="2"/>
	<rect x="496.728" y="275.54" fill="#FFFFFF" width="22.001" height="2"/>
	<rect x="496.728" y="285.54" fill="#FFFFFF" width="22.001" height="2"/>
	<rect x="496.728" y="295.54" fill="#FFFFFF" width="22.001" height="2"/>
	<rect x="488.728" y="265.54" fill="#FFFFFF" width="4" height="2"/>
	<rect x="488.728" y="275.54" fill="#FFFFFF" width="4" height="2"/>
	<rect x="488.728" y="285.54" fill="#FFFFFF" width="4" height="2"/>
	<rect x="488.728" y="295.54" fill="#FFFFFF" width="4" height="2"/>
	<path fill="#FFFFFF" d="M526.728,249.54h-13.469l-0.75-3h-3.781v-4h-10v4h-3.781l-0.75,3h-13.469v57h46V249.54z M496.509,248.54
		h4.219v-4h6v4h4.219l1.5,6h-17.438L496.509,248.54z M524.728,304.54h-42v-53h10.969l-1.25,5h22.563l-1.25-5h10.969V304.54z"/>
	<path fill="#FFFFFF" d="M544.728,296.776V242.54h-10v54.236l5,10L544.728,296.776z M542.728,252.54h-6v-8h6V252.54z
		 M536.728,254.54h6v41.764l-3,6l-3-6V254.54z"/>
	<path fill="#FFFFFF" d="M168.897,141.917c0-17.193-13.986-31.179-31.179-31.179s-31.179,13.986-31.179,31.179
		c0,12.342,7.207,23.027,17.635,28.077l-6.904,6.904l1.633,1.633l7.55-7.55c3.497,1.362,7.293,2.114,11.265,2.114
		s7.768-0.752,11.265-2.114l7.55,7.55l1.633-1.633l-6.904-6.904C161.691,164.944,168.897,154.26,168.897,141.917 M137.719,170.786
		c-15.919,0-28.87-12.95-28.87-28.869s12.951-28.87,28.87-28.87s28.87,12.951,28.87,28.87S153.638,170.786,137.719,170.786"/>
	<polygon fill="#FFFFFF" points="138.874,128.06 136.563,128.06 136.563,142.631 146.44,147.57 147.474,145.503 138.874,141.204 	
		"/>
	<path fill="#FFFFFF" d="M100.666,113.822l2.856,14.27l16.907-16.909l-14.269-2.853L100.666,113.822z M115.746,112.603
		l-10.806,10.805l-1.766-8.825l3.745-3.745L115.746,112.603z"/>
	<path fill="#FFFFFF" d="M155.009,111.184l16.909,16.91l2.854-14.27l-5.493-5.493L155.009,111.184z M170.499,123.409l-10.806-10.805
		l8.826-1.766l3.745,3.745L170.499,123.409z"/>
	<path fill="#FFFFFF" d="M64.633,12.355h-48v64h48V12.355z M18.633,14.355h6v60h-6V14.355z M62.633,74.355h-36v-60h36V74.355z"/>
	<rect x="30.633" y="26.355" fill="#FFFFFF" width="28" height="2"/>
	<rect x="30.633" y="32.355" fill="#FFFFFF" width="28" height="2"/>
	<path fill="#FFFFFF" d="M80.633,65.59V14.354h-10v4h-4v11h2v-9h2V65.59l5,10L80.633,65.59z M72.633,16.354h6v48.764l-3,6l-3-6
		V16.354z"/>
	<path fill="#FFFFFF" d="M439.334,33.431V23.393c8.891-0.646,9-9.866,9-9.962v-1h-9v-6h-34v6h-9v1c0,0.096,0.108,9.316,9,9.962
		v10.038c0,5.119,6.532,8.736,16,8.977v26.023h-11v2h24v-2h-11V42.408C432.801,42.167,439.334,38.55,439.334,33.431 M446.256,14.431
		c-0.274,2.033-1.495,6.463-6.922,6.951v-6.951H446.256z M398.416,14.431h6.918v6.951C399.936,20.892,398.696,16.464,398.416,14.431
		 M407.334,33.431v-25h30v25c0,3.479-5.152,7-15,7C412.485,40.431,407.334,36.91,407.334,33.431"/>
	<path fill="#FFFFFF" d="M529.311,36.366c0-4.853-3.949-8.802-8.803-8.802c-4.853,0-8.803,3.949-8.803,8.802s3.95,8.802,8.803,8.802
		C525.361,45.168,529.311,41.219,529.311,36.366 M514.221,36.366c0-3.467,2.82-6.288,6.287-6.288s6.287,2.821,6.287,6.288
		c0,3.466-2.82,6.287-6.287,6.287S514.221,39.832,514.221,36.366"/>
	<path fill="#FFFFFF" d="M520.46,89.862l0.959-1.124c1.099-1.284,26.842-31.678,26.753-51.454
		c-0.068-15.761-12.478-28.583-27.664-28.583c-15.255,0-27.665,12.825-27.665,28.588c0,19.77,25.572,50.162,26.661,51.446
		L520.46,89.862z M520.508,11.216c13.806,0,25.088,11.701,25.15,26.08c0.076,16.76-20.464,42.869-25.192,48.652
		c-4.701-5.789-25.107-31.89-25.107-48.659C495.358,22.913,506.641,11.216,520.508,11.216"/>
	<rect x="122.592" y="28.931" fill="#FFFFFF" width="44" height="2"/>
	<rect x="122.592" y="38.931" fill="#FFFFFF" width="44" height="2"/>
	<rect x="122.592" y="48.931" fill="#FFFFFF" width="44" height="2"/>
	<path fill="#FFFFFF" d="M129.592,75.104l15.37-13.174h31.63v-44h-64v44h17V75.104z M114.592,59.931v-40h60v40h-30.37l-12.63,10.826
		V59.931H114.592z"/>
	<path fill="#FEFEFE" d="M349.811,13.827h-18v64h18V13.827z M333.811,15.827h14v9h-6v2h6v8h-2v2h2v8h-6v2h6v8h-2v2h2v8h-6v2h6v9h-14
		V15.827z"/>
	<path fill="#FEFEFE" d="M327.81,23.591l-5-10l-5,10v54.236h10V23.591z M322.81,18.063l3,6v41.764h-6V24.063L322.81,18.063z
		 M319.81,67.827h6v8h-6V67.827z"/>
	<path fill="#FEFEFE" d="M362.811,77.063l5-10V15.827h-10v4h-4v11h2v-9h2v45.236L362.811,77.063z M359.811,17.827h6v48.764l-3,6
		l-3-6V17.827z"/>
	<path fill="#FFFFFF" d="M403.623,138.86h-14.579l-9,11.25h-19.71v38.249h72V150.11h-19.711L403.623,138.86z M362.584,152.36h6.75
		v33.749h-6.75V152.36z M430.084,186.109h-58.5V152.36h9.539l9-11.25h12.421l9,11.25h18.54V186.109z"/>
	<path fill="#FFFFFF" d="M396.334,159.109c-5.582,0-10.125,4.542-10.125,10.125s4.543,10.125,10.125,10.125
		c5.581,0,10.125-4.542,10.125-10.125S401.915,159.109,396.334,159.109 M396.334,177.109c-4.343,0-7.875-3.533-7.875-7.875
		c0-4.341,3.532-7.875,7.875-7.875c4.342,0,7.875,3.534,7.875,7.875C404.209,173.576,400.676,177.109,396.334,177.109"/>
	
		<rect x="164.217" y="277.314" fill="none" stroke="#FFFFFF" stroke-width="2" stroke-miterlimit="10" width="49.66" height="30.262"/>
	<polygon fill="none" stroke="#FFFFFF" stroke-width="2" stroke-miterlimit="10" points="189.045,292.987 211.647,277.314 
		166.443,277.314 	"/>
	<polygon fill="none" stroke="#FFFFFF" stroke-width="2" stroke-miterlimit="10" points="467.535,104.349 522.134,104.349 
		544.728,126.943 544.728,212.059 467.535,212.059 	"/>
	
		<line fill="none" stroke="#FFFFFF" stroke-width="2" stroke-miterlimit="10" x1="481.897" y1="124.096" x2="502.956" y2="124.096"/>
	
		<line fill="none" stroke="#FFFFFF" stroke-width="2" stroke-miterlimit="10" x1="482.139" y1="142.047" x2="530.366" y2="142.047"/>
	
		<line fill="none" stroke="#FFFFFF" stroke-width="2" stroke-miterlimit="10" x1="482.018" y1="156.408" x2="530.246" y2="156.408"/>
	
		<line fill="none" stroke="#FFFFFF" stroke-width="2" stroke-miterlimit="10" x1="482.139" y1="170.771" x2="530.366" y2="170.771"/>
	
		<line fill="none" stroke="#FFFFFF" stroke-width="2" stroke-miterlimit="10" x1="482.018" y1="185.132" x2="530.246" y2="185.132"/>
	<polygon fill="none" stroke="#FFFFFF" stroke-width="2" stroke-miterlimit="10" points="523.313,105.702 543.344,125.733 
		523.313,125.733 	"/>
	<path fill="#FFFFFF" d="M277.801,196.594h51.646l-51.646-51.646V196.594z M279.404,189.379h4.811v-1.605h-4.811v-4.81h3.207v-1.603
		h-3.207v-4.812h4.811v-1.604h-4.811v-4.812h3.207v-1.603h-3.207v-4.813h4.811v-1.603h-4.811v-13.298l46.171,46.172h-46.171V189.379
		z"/>
	<path fill="#FFFFFF" d="M288.224,167.398v21.98h21.98L288.224,167.398z M289.827,171.269l16.505,16.506h-16.505V171.269z"/>
	<polygon fill="none" stroke="#FFFFFF" stroke-width="2" stroke-miterlimit="10" points="437.182,96.573 437.182,121.864 
		305.529,121.861 283.484,108.638 305.53,95.413 437.182,95.413 	"/>
	<line fill="none" stroke="#FFFFFF" stroke-width="2" stroke-miterlimit="10" x1="419.137" y1="95.413" x2="419.137" y2="122.351"/>
	<line fill="none" stroke="#FFFFFF" stroke-width="2" stroke-miterlimit="10" x1="407.471" y1="95.148" x2="407.471" y2="122.086"/>
	<line fill="none" stroke="#FFFFFF" stroke-width="2" stroke-miterlimit="10" x1="307.471" y1="95.148" x2="307.471" y2="122.086"/>
	<path fill="none" stroke="#FFFFFF" stroke-width="2" stroke-miterlimit="10" d="M290.769,104.269c0,0,4.386,5.334-0.581,8.39"/>
	<path fill="none" stroke="#FFFFFF" stroke-width="2" stroke-miterlimit="2.613" d="M418.841,260.137
		c0,14.128,11.521,25.648,25.647,25.648c14.128,0,25.649-11.521,25.649-25.648"/>
	<path fill="none" stroke="#FFFFFF" stroke-width="2" stroke-miterlimit="2.613" d="M470.138,260.137
		c0-14.126-11.521-25.648-25.648-25.648s-25.648,11.522-25.648,25.648"/>
	<path fill="none" stroke="#FFFFFF" stroke-width="2" stroke-miterlimit="2.613" d="M441.473,260.735v3.181l-6.527,2.422
		c-1.516,0.54-2.524,2.002-2.524,3.61v2.013h24.137v-2.013c0-1.608-1.056-3.07-2.569-3.61l-6.482-2.422v-3.428"/>
	
		<ellipse fill="none" stroke="#FFFFFF" stroke-width="2" stroke-miterlimit="2.613" cx="444.309" cy="253.925" rx="6.34" ry="7.607"/>
	<path fill="none" stroke="#FFFFFF" stroke-width="2" stroke-miterlimit="2.613" d="M450.625,253.249
		c-0.213,0.025-0.396-0.002-0.61,0.04c-2.159,0.416-2.419,0.285-3.607-1.795c-1.233,2.362-5.621,1.488-8.357,1.205"/>
	<path fill="none" stroke="#FFFFFF" stroke-width="2" stroke-linecap="round" stroke-miterlimit="2.613" d="M69.633,217.295
		c0,3.949-3.23,7.182-7.181,7.182H27.978c-3.95,0-7.18-3.232-7.18-7.182v-68.943c0-3.95,3.23-7.181,7.18-7.181h34.474
		c3.951,0,7.181,3.231,7.181,7.179V217.295z"/>
	
		<line fill="none" stroke="#FFFFFF" stroke-width="2" stroke-linecap="round" stroke-miterlimit="2.613" x1="20.797" y1="155.534" x2="69.632" y2="155.534"/>
	
		<line fill="none" stroke="#FFFFFF" stroke-width="2" stroke-linecap="round" stroke-miterlimit="2.613" x1="20.797" y1="210.111" x2="69.632" y2="210.111"/>
	
		<line fill="none" stroke="#FFFFFF" stroke-width="2" stroke-linecap="round" stroke-miterlimit="2.613" x1="35.163" y1="149.79" x2="55.271" y2="149.79"/>
	
		<circle fill="none" stroke="#FFFFFF" stroke-width="2" stroke-linecap="round" stroke-miterlimit="2.613" cx="45.215" cy="217.295" r="2.872"/>
	<circle fill="none" stroke="#FFFFFF" stroke-width="2" stroke-miterlimit="10" cx="188.077" cy="220.467" r="8.625"/>
	<circle fill="none" stroke="#FFFFFF" stroke-width="2" stroke-miterlimit="10" cx="185.784" cy="251.21" r="6.332"/>
	<circle fill="none" stroke="#FFFFFF" stroke-width="2" stroke-miterlimit="10" cx="159.678" cy="241.461" r="7.001"/>
	<line fill="none" stroke="#FFFFFF" stroke-width="2" stroke-miterlimit="10" x1="165.002" y1="236.922" x2="180.553" y2="224.68"/>
	
		<line fill="none" stroke="#FFFFFF" stroke-width="2" stroke-miterlimit="10" x1="165.732" y1="243.197" x2="179.823" y2="251.634"/>
	<polygon fill="none" stroke="#FFFFFF" stroke-width="2" stroke-miterlimit="10" points="63.633,89.524 67.189,100.469 
		78.697,100.469 69.387,107.233 72.944,118.178 63.633,111.414 54.322,118.178 57.879,107.233 48.569,100.469 60.077,100.469 	"/>
	<circle fill="none" stroke="#FFFFFF" stroke-width="2" stroke-miterlimit="10" cx="359.684" cy="227.821" r="14.873"/>
	
		<rect x="378.04" y="239.105" transform="matrix(0.707 -0.7072 0.7072 0.707 -64.6801 343.1895)" fill="none" stroke="#FFFFFF" stroke-width="2" stroke-miterlimit="10" width="7.667" height="21.11"/>
	<line fill="none" stroke="#FFFDFE" stroke-width="2" stroke-miterlimit="10" x1="370.713" y1="237.8" x2="374.626" y2="241.981"/>
	<circle fill="none" stroke="#FFFFFF" stroke-width="2" stroke-miterlimit="10" cx="266.627" cy="251.471" r="38.116"/>
	<line fill="none" stroke="#FFFFFF" stroke-width="2" stroke-miterlimit="10" x1="228.078" y1="252.487" x2="304.69" y2="252.487"/>
	<path fill="none" stroke="#FFFFFF" stroke-width="2" stroke-miterlimit="10" d="M266.377,289.655l0.193-75.301
		C266.57,214.354,311.019,245.027,266.377,289.655"/>
	<path fill="none" stroke="#FFFFFF" stroke-width="2" stroke-miterlimit="10" d="M266.384,289.655l-0.192-75.301
		C266.192,214.354,221.757,245.027,266.384,289.655"/>
	<path fill="none" stroke="#FFFFFF" stroke-width="2" stroke-miterlimit="10" d="M237.258,276.011c0,0,27.494-14.864,58.328,0"/>
	<path fill="none" stroke="#FFFFFF" stroke-width="2" stroke-miterlimit="10" d="M237.258,226.764c0,0,27.494,14.864,58.328,0"/>
</g>
</svg>
